<svg width="24" height="24" viewBox="0 0 24 24" fill="none" xmlns="http://www.w3.org/2000/svg">
<path d="M8.82895 4.763L8.81151 4.77748L8.79544 4.79348C8.60367 4.98451 8.5 5.22965 8.5 5.50227C8.5 5.77236 8.58877 6.03257 8.79159 6.23675L13.8808 11.5L8.79162 16.7632C8.60229 16.9537 8.5 17.1974 8.5 17.4682C8.5 17.74 8.58989 18.0018 8.79544 18.2065L8.81151 18.2225L8.82895 18.237C9.02644 18.4009 9.26542 18.5 9.5339 18.5C9.8058 18.5 10.051 18.3975 10.2427 18.2065L10.2436 18.2056L16.2054 12.2375L16.221 12.2218L16.2352 12.2049C16.3999 12.008 16.5 11.7691 16.5 11.5C16.5 11.2309 16.3999 10.992 16.2352 10.7951L16.221 10.7782L16.2054 10.7625L10.2436 4.79436L10.2427 4.79348C10.051 4.60251 9.8058 4.5 9.5339 4.5C9.26542 4.5 9.02644 4.59907 8.82895 4.763Z" fill="#344E41" stroke="#212529"/>
</svg>
