<svg width="116" height="27" viewBox="0 0 116 27" fill="none" xmlns="http://www.w3.org/2000/svg">
<path d="M1.71596 25.485C1.62072 25.485 1.5731 25.4255 1.5731 25.3064V24.5564C1.5731 24.5445 1.57906 24.5207 1.59096 24.485C1.60286 24.4374 1.64453 24.4136 1.71596 24.4136C2.12072 24.4136 2.49572 24.3541 2.84096 24.235C3.1981 24.116 3.50763 23.9552 3.76953 23.7529C4.03144 23.5505 4.23977 23.3064 4.39453 23.0207C4.54929 22.735 4.62667 22.4255 4.62667 22.0921V3.94929C4.62667 3.35405 4.56715 2.88976 4.4481 2.55643C4.32906 2.21119 4.15048 1.95524 3.91239 1.78857C3.6862 1.61 3.39453 1.50286 3.03739 1.46715C2.69215 1.41953 2.28739 1.39572 1.8231 1.39572H1.01953C0.888579 1.39572 0.793341 1.32429 0.733817 1.18143C0.674293 1.02667 0.644531 0.895717 0.644531 0.788574C0.644531 0.72905 0.656436 0.639765 0.680246 0.520717C0.704055 0.401669 0.769531 0.330241 0.876674 0.306431C0.888579 0.306431 0.924293 0.306431 0.983817 0.306431C1.05525 0.306431 1.17429 0.306431 1.34096 0.306431C1.50763 0.294527 1.72786 0.288574 2.00167 0.288574C2.28739 0.276669 2.65644 0.264765 3.10882 0.25286C3.76358 0.240955 4.46001 0.223098 5.1981 0.199289C5.9481 0.175479 6.70406 0.151669 7.46596 0.12786C8.22786 0.10405 8.97786 0.0861933 9.71596 0.0742885C10.466 0.050479 11.1683 0.0385742 11.8231 0.0385742H14.341C15.2933 0.0385742 16.2219 0.199289 17.1267 0.520717C18.0314 0.842146 18.835 1.31834 19.5374 1.94929C20.2398 2.56834 20.8052 3.34215 21.2338 4.27072C21.6624 5.19929 21.8767 6.27072 21.8767 7.485C21.8767 8.24691 21.7636 8.97905 21.5374 9.68143C21.3112 10.3719 21.0017 11.0088 20.6088 11.5921C20.2279 12.1755 19.7814 12.7052 19.2695 13.1814C18.7695 13.6457 18.2398 14.0386 17.6802 14.36C17.1326 14.6814 16.5731 14.9255 16.0017 15.0921C15.5017 15.2231 15.0314 15.2886 14.591 15.2886C14.5195 15.2886 14.4541 15.2886 14.3945 15.2886L10.1267 15.0743C10.1148 15.0743 10.0672 15.0743 9.98382 15.0743C9.90048 15.0743 9.84096 15.0862 9.80525 15.11C9.76953 15.1338 9.74572 15.1576 9.73382 15.1814C9.72191 15.2052 9.71596 15.2529 9.71596 15.3243V22.0386C9.71596 22.5029 9.84096 22.8898 10.091 23.1993C10.3529 23.4969 10.6862 23.735 11.091 23.9136C11.5076 24.0921 11.9719 24.2231 12.4838 24.3064C12.9957 24.3779 13.5017 24.4136 14.0017 24.4136C14.0731 24.4136 14.1148 24.4314 14.1267 24.4671C14.1386 24.5029 14.1445 24.5326 14.1445 24.5564V25.3421C14.1445 25.366 14.1326 25.3957 14.1088 25.4314C14.0969 25.4671 14.0612 25.485 14.0017 25.485H1.71596ZM9.75167 13.0564C9.76358 13.1517 9.78739 13.241 9.8231 13.3243C9.87072 13.3957 9.96001 13.4374 10.091 13.4493C10.1386 13.4493 10.2219 13.4552 10.341 13.4671C10.4719 13.4791 10.6207 13.491 10.7874 13.5029C10.9541 13.5148 11.1326 13.5267 11.3231 13.5386C11.5255 13.5505 11.7219 13.5564 11.9124 13.5564C12.71 13.5564 13.4064 13.3957 14.0017 13.0743C14.6088 12.7529 15.1088 12.3064 15.5017 11.735C15.9064 11.1517 16.2041 10.4671 16.3945 9.68143C16.5969 8.88381 16.6981 8.00881 16.6981 7.05643C16.6981 5.09215 16.3052 3.65167 15.5195 2.735C14.7338 1.81834 13.5791 1.36 12.0552 1.36C11.8886 1.36 11.7338 1.36596 11.591 1.37786C11.4481 1.37786 11.3052 1.38381 11.1624 1.39572C11.0195 1.39572 10.8648 1.40167 10.6981 1.41357C10.5433 1.41357 10.3648 1.41953 10.1624 1.43143C10.091 1.43143 9.99572 1.44929 9.87667 1.485C9.76953 1.50881 9.71596 1.58619 9.71596 1.71715V12.5207L9.75167 13.0564Z" fill="#344E41"/>
<path d="M28.9224 25.1279C28.5295 25.4017 28.0652 25.616 27.5295 25.7707C26.9938 25.9255 26.4581 26.0029 25.9224 26.0029C24.47 26.0029 23.3629 25.6755 22.601 25.0207C21.851 24.366 21.476 23.4791 21.476 22.36C21.476 21.7171 21.6188 21.1636 21.9045 20.6993C22.2022 20.235 22.6367 19.8243 23.2081 19.4671C23.7795 19.11 24.4819 18.7886 25.3152 18.5029C26.1605 18.2052 27.1367 17.9136 28.2438 17.6279C28.8391 17.4731 29.3152 17.3064 29.6724 17.1279C30.0414 16.9493 30.3807 16.7767 30.6902 16.61C30.8926 16.5029 31.0057 16.4076 31.0295 16.3243C31.0652 16.241 31.0831 16.1636 31.0831 16.0921V12.985C31.0831 12.5921 31.0236 12.2291 30.9045 11.8957C30.7974 11.5505 30.6307 11.2529 30.4045 11.0029C30.1783 10.7529 29.9045 10.5564 29.5831 10.4136C29.2617 10.2707 28.8986 10.1993 28.4938 10.1993C28.1486 10.1993 27.8272 10.2588 27.5295 10.3779C27.2319 10.4969 26.976 10.6695 26.7617 10.8957C26.5474 11.1219 26.3748 11.3898 26.2438 11.6993C26.1248 12.0088 26.0652 12.36 26.0652 12.7529C26.0652 12.7886 26.0652 12.8421 26.0652 12.9136C26.0772 12.985 26.0891 13.0624 26.101 13.1457C26.1129 13.2171 26.1248 13.2826 26.1367 13.3421C26.1486 13.4017 26.1545 13.4374 26.1545 13.4493C26.1426 13.4731 26.0414 13.5207 25.851 13.5921C25.6724 13.6636 25.4462 13.7469 25.1724 13.8421C24.9105 13.9255 24.6188 14.0148 24.2974 14.11C23.976 14.1933 23.6664 14.2767 23.3688 14.36C23.0831 14.4433 22.8272 14.5207 22.601 14.5921C22.3867 14.6517 22.2379 14.6874 22.1545 14.6993C22.0236 14.6993 21.9402 14.6338 21.9045 14.5029C21.8807 14.36 21.8688 14.2231 21.8688 14.0921C21.8688 13.4017 22.0772 12.7291 22.4938 12.0743C22.9105 11.4195 23.4641 10.8421 24.1545 10.3421C24.8569 9.83024 25.6605 9.41953 26.5652 9.11C27.47 8.80048 28.4045 8.64572 29.3688 8.64572C30.226 8.64572 30.9938 8.75881 31.6724 8.985C32.351 9.19929 32.9283 9.50286 33.4045 9.89572C33.8807 10.2767 34.2438 10.7231 34.4938 11.235C34.7438 11.735 34.8688 12.2707 34.8688 12.8421V21.36C34.8688 21.6695 34.9819 21.9493 35.2081 22.1993C35.4462 22.4374 35.7498 22.5564 36.1188 22.5564C36.3331 22.5564 36.5236 22.5207 36.6902 22.4493C36.8688 22.366 37.0236 22.2767 37.1545 22.1814C37.2974 22.0743 37.4164 21.985 37.5117 21.9136C37.6069 21.8302 37.6902 21.7886 37.7617 21.7886C37.8569 21.7886 37.9105 21.8302 37.9224 21.9136C37.9343 21.985 37.9402 22.0505 37.9402 22.11C37.9402 22.3124 37.9105 22.5207 37.851 22.735C37.8033 22.9374 37.7141 23.0862 37.5831 23.1814C36.9998 23.6219 36.4819 24.0207 36.0295 24.3779C35.5772 24.7231 35.1664 25.0207 34.7974 25.2707C34.4283 25.5207 34.095 25.7112 33.7974 25.8421C33.4998 25.9731 33.22 26.0386 32.9581 26.0386C32.72 26.0386 32.5057 25.9731 32.3152 25.8421C32.1367 25.7112 31.976 25.5505 31.8331 25.36C31.7022 25.1695 31.5891 24.9671 31.4938 24.7529C31.3986 24.5267 31.3152 24.3183 31.2438 24.1279C31.1843 23.9374 31.1367 23.7826 31.101 23.6636C31.0652 23.5445 31.0355 23.491 31.0117 23.5029L28.9224 25.1279ZM25.6367 21.9314C25.6367 22.2529 25.6962 22.5148 25.8152 22.7171C25.9462 22.9195 26.1129 23.0743 26.3152 23.1814C26.5176 23.2886 26.7438 23.366 26.9938 23.4136C27.2557 23.4493 27.5236 23.4671 27.7974 23.4671C28.0474 23.4671 28.3569 23.4076 28.726 23.2886C29.095 23.1576 29.4522 22.991 29.7974 22.7886C30.1545 22.5743 30.4581 22.3362 30.7081 22.0743C30.9581 21.8005 31.0831 21.5267 31.0831 21.2529V18.3064C31.0831 18.1755 31.0355 18.11 30.9402 18.11C30.9164 18.11 30.8926 18.116 30.8688 18.1279L26.726 20.0564C26.5593 20.1755 26.4045 20.2886 26.2617 20.3957C26.1307 20.491 26.0176 20.61 25.9224 20.7529C25.8272 20.8838 25.7557 21.0445 25.7081 21.235C25.6605 21.4136 25.6367 21.6457 25.6367 21.9314Z" fill="#344E41"/>
<path d="M44.5752 8.71715C44.6229 8.69334 44.6705 8.66953 44.7181 8.64572C44.7776 8.62191 44.8193 8.61 44.8431 8.61C45.0455 8.61 45.1467 8.75286 45.1467 9.03857V12.0743C45.1467 12.11 45.1467 12.1576 45.1467 12.2171C45.1586 12.2648 45.1943 12.2886 45.2538 12.2886C45.3133 12.2886 45.361 12.2707 45.3967 12.235C45.4324 12.1874 45.4681 12.1457 45.5038 12.11C45.7181 11.8243 45.9562 11.5088 46.2181 11.1636C46.4919 10.8064 46.7776 10.4731 47.0752 10.1636C47.3848 9.85405 47.7002 9.5981 48.0217 9.39572C48.3431 9.18143 48.6586 9.07429 48.9681 9.07429C49.1824 9.07429 49.4622 9.13381 49.8074 9.25286C50.1526 9.37191 50.486 9.51476 50.8074 9.68143C51.1407 9.83619 51.4205 10.0029 51.6467 10.1814C51.8848 10.3481 52.0038 10.485 52.0038 10.5921C52.0038 10.6993 51.9502 10.9017 51.8431 11.1993C51.736 11.485 51.5991 11.7767 51.4324 12.0743C51.2776 12.3719 51.105 12.6398 50.9145 12.8779C50.736 13.1041 50.5693 13.2171 50.4145 13.2171H50.3788C50.1645 13.1457 49.9443 13.0624 49.7181 12.9671C49.5038 12.86 49.2836 12.7588 49.0574 12.6636C48.8312 12.5564 48.5991 12.4731 48.361 12.4136C48.1348 12.3421 47.9026 12.3064 47.6645 12.3064C47.3074 12.3064 46.9741 12.3838 46.6645 12.5386C46.355 12.6814 46.0872 12.8719 45.861 13.11C45.6467 13.3362 45.4741 13.5921 45.3431 13.8779C45.2122 14.1636 45.1467 14.4374 45.1467 14.6993V22.235C45.1467 22.5802 45.2181 22.8719 45.361 23.11C45.5157 23.3362 45.7062 23.5267 45.9324 23.6814C46.1705 23.8243 46.4264 23.9374 46.7002 24.0207C46.986 24.0921 47.2598 24.1517 47.5217 24.1993C47.7836 24.2469 48.0217 24.2886 48.236 24.3243C48.4502 24.3481 48.611 24.3838 48.7181 24.4314C48.8372 24.4791 48.8967 24.6457 48.8967 24.9314C48.8967 25.2767 48.8372 25.4612 48.7181 25.485H38.4145C38.2955 25.4612 38.236 25.2767 38.236 24.9314C38.236 24.6457 38.2955 24.4791 38.4145 24.4314C38.5693 24.36 38.7895 24.3064 39.0752 24.2707C39.361 24.2231 39.6467 24.1398 39.9324 24.0207C40.2181 23.8898 40.4681 23.6933 40.6824 23.4314C40.8967 23.1576 41.0038 22.7588 41.0038 22.235V13.6457C41.0038 13.36 40.9264 13.1398 40.7717 12.985C40.6169 12.8183 40.4205 12.6933 40.1824 12.61C39.9443 12.5267 39.6883 12.4612 39.4145 12.4136C39.1407 12.3541 38.8788 12.2886 38.6288 12.2171C38.5574 12.1933 38.4979 12.1636 38.4502 12.1279C38.4145 12.0802 38.3967 11.991 38.3967 11.86C38.3967 11.8005 38.4145 11.741 38.4502 11.6814C38.486 11.6219 38.5574 11.5624 38.6645 11.5029L44.5752 8.71715Z" fill="#344E41"/>
<path d="M53.621 11.7171H52.2817C52.115 11.7171 51.9841 11.6755 51.8888 11.5921C51.7936 11.5088 51.74 11.4195 51.7281 11.3243C51.7281 11.2648 51.74 11.1993 51.7638 11.1279C51.7876 11.0564 51.8174 11.0088 51.8531 10.985C52.0912 10.8302 52.3471 10.6517 52.621 10.4493C52.9067 10.235 53.1864 10.0148 53.4602 9.78857C53.7341 9.56238 54.0019 9.33619 54.2638 9.11C54.5257 8.88381 54.7579 8.67548 54.9602 8.485C55.0793 8.35405 55.24 8.15762 55.4424 7.89572C55.6567 7.63381 55.8948 7.37786 56.1567 7.12786C56.4305 6.86596 56.7221 6.63976 57.0317 6.44929C57.3412 6.24691 57.6567 6.14572 57.9781 6.14572C58.0495 6.14572 58.1329 6.16953 58.2281 6.21715C58.3233 6.26476 58.371 6.32429 58.371 6.39572C58.371 6.47905 58.3471 6.61 58.2995 6.78857C58.2638 6.95524 58.2162 7.14572 58.1567 7.36C58.0971 7.57429 58.0317 7.80048 57.9602 8.03857C57.8888 8.27667 57.8233 8.50881 57.7638 8.735C57.7638 8.83024 57.7757 8.90762 57.7995 8.96715C57.8352 9.02667 57.9186 9.06238 58.0495 9.07429H62.6031C62.7936 9.07429 62.9245 9.11 62.996 9.18143C63.0674 9.24096 63.121 9.32429 63.1567 9.43143C63.1805 9.49096 63.2043 9.61596 63.2281 9.80643C63.2519 9.985 63.2757 10.1874 63.2995 10.4136C63.3233 10.6279 63.3412 10.8481 63.3531 11.0743C63.3769 11.2886 63.3888 11.4671 63.3888 11.61C63.3888 11.6814 63.3412 11.7171 63.246 11.7171H57.871C57.8114 11.7171 57.7757 11.7291 57.7638 11.7529C57.7638 11.7767 57.7638 11.8183 57.7638 11.8779V20.7529C57.7638 21.1338 57.8114 21.4671 57.9067 21.7529C58.0019 22.0386 58.121 22.2767 58.2638 22.4671C58.4186 22.6576 58.5912 22.8005 58.7817 22.8957C58.9721 22.991 59.1626 23.0386 59.3531 23.0386C59.9007 23.0386 60.3471 22.9612 60.6924 22.8064C61.0376 22.6398 61.3352 22.4612 61.5852 22.2707C61.8352 22.0802 62.0555 21.9076 62.246 21.7529C62.4364 21.5862 62.6507 21.5029 62.8888 21.5029C63.0555 21.5029 63.1507 21.5683 63.1745 21.6993C63.2102 21.8302 63.2281 21.9314 63.2281 22.0029C63.2281 22.1576 63.2043 22.2826 63.1567 22.3779C63.121 22.4612 63.0912 22.5267 63.0674 22.5743C63.0555 22.5981 62.99 22.6993 62.871 22.8779C62.7519 23.0564 62.5912 23.2707 62.3888 23.5207C62.1864 23.7707 61.9364 24.0386 61.6388 24.3243C61.3531 24.61 61.0317 24.8779 60.6745 25.1279C60.3174 25.366 59.9245 25.5624 59.496 25.7171C59.0793 25.8838 58.6388 25.9671 58.1745 25.9671C57.5317 25.9671 56.9305 25.8481 56.371 25.61C55.8114 25.3719 55.3293 25.0564 54.9245 24.6636C54.5198 24.2588 54.1983 23.8005 53.9602 23.2886C53.7341 22.7767 53.621 22.2469 53.621 21.6993V11.7171Z" fill="#344E41"/>
<path d="M70.0238 8.16357C70.0714 8.13976 70.1191 8.11596 70.1667 8.09215C70.2262 8.06834 70.2679 8.05643 70.2917 8.05643C70.4941 8.05643 70.5952 8.19929 70.5952 8.485V11.2707C70.631 11.3898 70.6786 11.4493 70.7381 11.4493C70.7976 11.4493 70.8452 11.4493 70.881 11.4493C70.9167 11.4374 70.9643 11.4136 71.0238 11.3779C71.7857 10.985 72.4286 10.6576 72.9524 10.3957C73.4881 10.1219 73.9464 9.89572 74.3274 9.71715C74.7202 9.52667 75.0655 9.38381 75.3631 9.28857C75.6726 9.18143 75.9822 9.10405 76.2917 9.05643C76.6012 8.99691 76.9405 8.96119 77.3095 8.94929C77.6786 8.93738 78.131 8.93143 78.6667 8.93143C79.25 8.93143 79.756 9.05643 80.1845 9.30643C80.6131 9.55643 80.9702 9.88976 81.256 10.3064C81.5536 10.7112 81.7917 11.1814 81.9702 11.7171C82.1607 12.241 82.3036 12.7826 82.3988 13.3421C82.4941 13.8898 82.5595 14.4374 82.5952 14.985C82.631 15.5207 82.6488 16.0088 82.6488 16.4493C82.6488 16.866 82.6369 17.2529 82.6131 17.61C82.6012 17.9671 82.5833 18.36 82.5595 18.7886C82.5476 19.2052 82.5298 19.6814 82.506 20.2171C82.4941 20.7529 82.4881 21.4017 82.4881 22.1636C82.4881 22.5207 82.5536 22.8183 82.6845 23.0564C82.8155 23.2945 82.9822 23.491 83.1845 23.6457C83.3988 23.8005 83.631 23.9195 83.881 24.0029C84.131 24.0743 84.375 24.1338 84.6131 24.1814C84.8512 24.2291 85.0655 24.2707 85.256 24.3064C85.4583 24.3302 85.6131 24.366 85.7202 24.4136C85.7679 24.4374 85.8095 24.5148 85.8452 24.6457C85.881 24.7767 85.8988 24.8719 85.8988 24.9314C85.8988 25.0029 85.8869 25.11 85.8631 25.2529C85.8393 25.3838 85.7917 25.4612 85.7202 25.485H75.756C75.6845 25.4612 75.6369 25.3838 75.6131 25.2529C75.5893 25.11 75.5774 25.0029 75.5774 24.9314C75.5774 24.8719 75.5952 24.7767 75.631 24.6457C75.6667 24.5148 75.7083 24.4374 75.756 24.4136C75.9107 24.3421 76.1131 24.2886 76.3631 24.2529C76.625 24.2052 76.8869 24.11 77.1488 23.9671C77.4226 23.8243 77.6667 23.61 77.881 23.3243C78.1072 23.0267 78.256 22.5921 78.3274 22.0207C78.3512 21.8421 78.3691 21.6755 78.381 21.5207C78.4048 21.366 78.4226 21.2112 78.4345 21.0564C78.4464 20.8898 78.4524 20.7112 78.4524 20.5207C78.4643 20.3302 78.4702 20.11 78.4702 19.86C78.4702 19.3243 78.4643 18.7529 78.4524 18.1457C78.4405 17.5386 78.4345 16.86 78.4345 16.11C78.4345 15.5267 78.4048 14.9493 78.3452 14.3779C78.2976 13.8064 78.1667 13.2945 77.9524 12.8421C77.75 12.3898 77.4464 12.0207 77.0417 11.735C76.6369 11.4493 76.0774 11.3064 75.3631 11.3064C75.1131 11.3064 74.8869 11.3243 74.6845 11.36C74.4941 11.3838 74.256 11.4493 73.9702 11.5564C73.6964 11.6636 73.3333 11.8243 72.881 12.0386C72.4286 12.2529 71.8214 12.5445 71.0595 12.9136C70.9643 12.9731 70.8631 13.0445 70.756 13.1279C70.6607 13.1993 70.6072 13.2945 70.5952 13.4136V22.1636C70.5952 22.6993 70.7024 23.11 70.9167 23.3957C71.131 23.6695 71.381 23.8719 71.6667 24.0029C71.9524 24.1219 72.2381 24.2052 72.5238 24.2529C72.8095 24.2886 73.0298 24.3421 73.1845 24.4136C73.2322 24.4374 73.2738 24.5148 73.3095 24.6457C73.3452 24.7767 73.3631 24.8719 73.3631 24.9314C73.3631 25.0029 73.3512 25.11 73.3274 25.2529C73.3036 25.3838 73.256 25.4612 73.1845 25.485H63.8631C63.7917 25.4612 63.7441 25.3838 63.7202 25.2529C63.6964 25.11 63.6845 25.0029 63.6845 24.9314C63.6845 24.8719 63.7024 24.7767 63.7381 24.6457C63.7738 24.5148 63.8155 24.4374 63.8631 24.4136C64.0179 24.3421 64.2381 24.2886 64.5238 24.2529C64.8095 24.2052 65.0952 24.1219 65.381 24.0029C65.6667 23.8719 65.9167 23.6695 66.131 23.3957C66.3452 23.11 66.4524 22.6993 66.4524 22.1636V13.0921C66.4524 12.8064 66.375 12.5862 66.2202 12.4314C66.0655 12.2648 65.8691 12.1398 65.631 12.0564C65.3929 11.9731 65.1369 11.9076 64.8631 11.86C64.5893 11.8005 64.3274 11.735 64.0774 11.6636C64.006 11.6398 63.9464 11.61 63.8988 11.5743C63.8631 11.5267 63.8452 11.4374 63.8452 11.3064C63.8452 11.2469 63.8631 11.1874 63.8988 11.1279C63.9345 11.0683 64.006 11.0088 64.1131 10.9493L70.0238 8.16357Z" fill="#344E41"/>
<path d="M86.4088 18.2529C86.4088 16.86 86.6052 15.5802 86.9981 14.4136C87.391 13.235 87.9564 12.2171 88.6945 11.36C89.4326 10.5029 90.3314 9.83619 91.391 9.36C92.4624 8.88381 93.6767 8.64572 95.0338 8.64572C95.4386 8.64572 95.8017 8.67548 96.1231 8.735C96.4445 8.78262 96.7362 8.85405 96.9981 8.94929C97.2719 9.03262 97.5219 9.13976 97.7481 9.27072C97.9862 9.38976 98.2243 9.52072 98.4624 9.66357C98.7362 9.80643 99.0457 10.0624 99.391 10.4314C99.7481 10.8005 100.081 11.2291 100.391 11.7171C100.7 12.2052 100.962 12.7291 101.177 13.2886C101.391 13.8362 101.498 14.366 101.498 14.8779C101.498 15.0445 101.462 15.2291 101.391 15.4314C101.331 15.6219 101.224 15.7171 101.07 15.7171H90.5338C90.4148 15.7171 90.3314 15.8243 90.2838 16.0386C90.2481 16.2529 90.2302 16.5148 90.2302 16.8243C90.2302 17.8719 90.3791 18.8064 90.6767 19.6279C90.9862 20.4374 91.3969 21.1279 91.9088 21.6993C92.4207 22.2588 93.01 22.6874 93.6767 22.985C94.3433 23.2707 95.0457 23.4136 95.7838 23.4136C96.2481 23.4136 96.6945 23.3541 97.1231 23.235C97.5517 23.1041 97.9624 22.9374 98.3552 22.735C98.7481 22.5326 99.1172 22.3064 99.4624 22.0564C99.8076 21.8064 100.135 21.5564 100.445 21.3064C100.516 21.2826 100.564 21.2707 100.587 21.2707C100.623 21.2707 100.671 21.3005 100.73 21.36C100.837 21.4552 100.945 21.5683 101.052 21.6993C101.159 21.8183 101.242 21.9195 101.302 22.0029C101.337 22.0386 101.355 22.0743 101.355 22.11C101.355 22.1457 101.331 22.1874 101.284 22.235C100.891 22.6993 100.409 23.1576 99.8374 23.61C99.266 24.0505 98.6529 24.4493 97.9981 24.8064C97.3552 25.1517 96.6945 25.4314 96.016 25.6457C95.3374 25.86 94.6945 25.9671 94.0874 25.9671C92.8612 25.9671 91.7719 25.7469 90.8195 25.3064C89.8672 24.8541 89.0636 24.2648 88.4088 23.5386C87.7541 22.8124 87.2541 21.991 86.9088 21.0743C86.5755 20.1457 86.4088 19.2052 86.4088 18.2529ZM96.891 14.3421C97.2005 14.3421 97.3552 14.2052 97.3552 13.9314C97.3552 13.4671 97.2779 13.0326 97.1231 12.6279C96.9802 12.2112 96.7719 11.8481 96.4981 11.5386C96.2243 11.2171 95.891 10.9671 95.4981 10.7886C95.1172 10.61 94.6886 10.5207 94.2124 10.5207C93.641 10.5207 93.141 10.6457 92.7124 10.8957C92.2838 11.1338 91.9207 11.4255 91.6231 11.7707C91.3255 12.116 91.0993 12.4731 90.9445 12.8421C90.8017 13.2112 90.7302 13.5267 90.7302 13.7886C90.7302 13.991 90.76 14.1338 90.8195 14.2171C90.8791 14.3005 90.9564 14.3421 91.0517 14.3421H96.891Z" fill="#344E41"/>
<path d="M107.937 8.71715C107.984 8.69334 108.032 8.66953 108.08 8.64572C108.139 8.62191 108.181 8.61 108.205 8.61C108.407 8.61 108.508 8.75286 108.508 9.03857V12.0743C108.508 12.11 108.508 12.1576 108.508 12.2171C108.52 12.2648 108.556 12.2886 108.615 12.2886C108.675 12.2886 108.722 12.2707 108.758 12.235C108.794 12.1874 108.83 12.1457 108.865 12.11C109.08 11.8243 109.318 11.5088 109.58 11.1636C109.853 10.8064 110.139 10.4731 110.437 10.1636C110.746 9.85405 111.062 9.5981 111.383 9.39572C111.705 9.18143 112.02 9.07429 112.33 9.07429C112.544 9.07429 112.824 9.13381 113.169 9.25286C113.514 9.37191 113.847 9.51476 114.169 9.68143C114.502 9.83619 114.782 10.0029 115.008 10.1814C115.246 10.3481 115.365 10.485 115.365 10.5921C115.365 10.6993 115.312 10.9017 115.205 11.1993C115.097 11.485 114.96 11.7767 114.794 12.0743C114.639 12.3719 114.466 12.6398 114.276 12.8779C114.097 13.1041 113.931 13.2171 113.776 13.2171H113.74C113.526 13.1457 113.306 13.0624 113.08 12.9671C112.865 12.86 112.645 12.7588 112.419 12.6636C112.193 12.5564 111.96 12.4731 111.722 12.4136C111.496 12.3421 111.264 12.3064 111.026 12.3064C110.669 12.3064 110.335 12.3838 110.026 12.5386C109.716 12.6814 109.449 12.8719 109.222 13.11C109.008 13.3362 108.835 13.5921 108.705 13.8779C108.574 14.1636 108.508 14.4374 108.508 14.6993V22.235C108.508 22.5802 108.58 22.8719 108.722 23.11C108.877 23.3362 109.068 23.5267 109.294 23.6814C109.532 23.8243 109.788 23.9374 110.062 24.0207C110.347 24.0921 110.621 24.1517 110.883 24.1993C111.145 24.2469 111.383 24.2886 111.597 24.3243C111.812 24.3481 111.972 24.3838 112.08 24.4314C112.199 24.4791 112.258 24.6457 112.258 24.9314C112.258 25.2767 112.199 25.4612 112.08 25.485H101.776C101.657 25.4612 101.597 25.2767 101.597 24.9314C101.597 24.6457 101.657 24.4791 101.776 24.4314C101.931 24.36 102.151 24.3064 102.437 24.2707C102.722 24.2231 103.008 24.1398 103.294 24.0207C103.58 23.8898 103.83 23.6933 104.044 23.4314C104.258 23.1576 104.365 22.7588 104.365 22.235V13.6457C104.365 13.36 104.288 13.1398 104.133 12.985C103.978 12.8183 103.782 12.6933 103.544 12.61C103.306 12.5267 103.05 12.4612 102.776 12.4136C102.502 12.3541 102.24 12.2886 101.99 12.2171C101.919 12.1933 101.859 12.1636 101.812 12.1279C101.776 12.0802 101.758 11.991 101.758 11.86C101.758 11.8005 101.776 11.741 101.812 11.6814C101.847 11.6219 101.919 11.5624 102.026 11.5029L107.937 8.71715Z" fill="#344E41"/>
</svg>
