<svg width="121" height="90" viewBox="0 0 121 90" fill="none" xmlns="http://www.w3.org/2000/svg">
<path d="M72.5786 1.85936C72.4349 1.98354 72.2455 2.22536 72.1606 2.3953C71.9778 2.76131 71.9713 3.04889 72.1149 5.00968C72.1672 5.68942 72.1933 6.08811 72.2521 6.90511C72.2717 7.22537 72.3043 7.61099 72.3174 7.75478C72.3565 8.18615 72.4153 8.89857 72.448 9.38877C72.4676 9.63713 72.4937 10.0097 72.5133 10.2058C72.5329 10.4018 72.559 10.7352 72.5786 10.9443C72.5982 11.16 72.6243 11.4672 72.6373 11.6306C72.6569 11.8005 72.6896 12.16 72.7157 12.428C72.7418 12.696 72.7679 12.9901 72.781 13.0816C72.7875 13.1731 72.8136 13.3888 72.8332 13.5718C72.8528 13.7482 72.8789 13.9574 72.8985 14.0293C72.9116 14.1012 72.9442 14.2907 72.9638 14.4541C72.9834 14.6175 73.0161 14.8071 73.0291 14.879C73.0422 14.9509 73.0748 15.1404 73.101 15.3038C73.1336 15.5456 73.2511 16.1731 73.434 17.1665C73.447 17.2384 73.5058 17.5195 73.5581 17.7875C73.6103 18.0554 73.6691 18.3365 73.6821 18.4084C73.6952 18.4803 73.7605 18.7744 73.8193 19.062C73.878 19.3495 73.9433 19.6567 73.9564 19.7482C73.976 19.8397 74.0152 19.9966 74.0478 20.1077C74.0739 20.2123 74.1262 20.4214 74.1523 20.5652C74.211 20.8855 74.1915 20.794 74.4265 21.7221L74.6224 22.4868L74.1849 22.6241C72.5851 23.1339 72.3043 23.2254 72.2194 23.245C72.1672 23.258 71.8733 23.3496 71.5664 23.4411C71.2595 23.5326 70.5543 23.7417 69.9992 23.9051C68.752 24.2711 67.4983 24.6894 67.1783 24.8528C66.8975 24.9966 66.7538 25.1862 66.6951 25.4803C66.6102 25.9051 66.9955 26.2188 67.5962 26.2188C67.8901 26.2188 68.2623 26.1208 69.3266 25.7548C71.5338 25.0031 74.394 24.0483 74.4706 24.0558C74.5055 24.0936 74.5114 24.258 74.4788 24.7417C74.4527 25.1208 74.4265 25.4803 74.4135 25.5456C74.4004 25.611 74.3678 25.9247 74.3416 26.245C74.3155 26.5718 74.2894 26.879 74.2763 26.9312C74.2698 26.9901 74.2372 27.2384 74.211 27.4803C74.1915 27.7221 74.1588 27.9835 74.1457 28.0489C74.1327 28.1143 74.1066 28.343 74.0805 28.5522C73.9498 29.8005 73.7278 30.6633 73.4862 30.8528C73.2838 31.0162 73.0422 30.9901 72.3108 30.7417C71.7688 30.5522 71.684 30.5391 71.364 30.5979C70.7959 30.709 70.5347 30.9443 70.1364 31.709C69.8948 32.1731 69.5813 32.5522 69.4899 32.5064C69.4638 32.4933 69.3919 32.4541 69.3266 32.4214C69.1307 32.3103 68.7259 31.3953 68.3341 30.1796C68.1317 29.5326 67.8966 28.8528 67.8182 28.6763C67.6354 28.2646 67.3887 27.919 67.0235 27.7275C66.9222 27.6744 66.682 27.696 66.682 27.696C66.682 27.696 66.4992 27.2254 66.349 26.7417C66.0355 25.7482 65.5066 24.3888 65.1018 23.5064C64.1549 21.4737 63.2995 19.8397 62.8228 19.1273C61.0793 16.5522 60.5439 15.8724 59.4272 14.8201C59.1922 14.5979 58.9571 14.3757 58.8983 14.3169C58.8395 14.258 58.5326 14.0097 58.2257 13.7613C57.2201 12.9509 56.1688 12.4018 55.0783 12.1143C54.6016 11.9901 54.3926 11.9509 53.8376 11.8659C53.7331 11.8463 53.5764 11.8201 53.5046 11.8071C52.721 11.6371 50.3571 11.6371 49.4887 11.8071C49.4038 11.8267 49.0969 11.8855 48.8095 11.9378C47.1118 12.245 45.4597 12.7482 43.9121 13.4411C42.1033 14.245 39.5892 15.4999 37.7413 16.526C34.7897 18.1665 30.3494 21.075 28.2728 22.7286C28.2206 22.7744 27.7962 23.1143 27.326 23.4803C25.7719 24.709 23.395 26.7221 22.2457 27.7875C20.6263 29.2777 17.4135 32.5064 16.0031 34.0554C15.9182 34.1469 15.6962 34.3888 15.5133 34.5848C15.3305 34.7875 14.9909 35.1665 14.7558 35.4345C14.5208 35.7025 14.2987 35.9509 14.2596 35.9901C14.2204 36.0228 14.018 36.258 13.8025 36.513C13.5935 36.7613 13.3846 36.9966 13.3454 37.0358C13.2801 37.1012 12.3136 38.2254 12.0067 38.5979C11.9218 38.7025 11.7586 38.8986 11.6476 39.0228C10.9815 39.7875 8.6634 42.7482 8.04959 43.611C6.92643 45.1927 5.58126 47.2711 4.73237 48.7352C4.26223 49.5055 3.84143 50.4562 3.49821 51.1992C2.9954 52.2907 2.78056 52.8184 2.21213 54.509C1.8125 55.7427 1.74818 56.5848 1.72859 56.6764C1.65023 57.0489 1.68288 57.977 1.79389 58.3496C2.17916 59.696 3.11947 60.4933 4.71278 60.8267C5.38536 60.9705 7.07662 60.9705 8.32384 60.8267C8.43485 60.8136 8.7287 60.7875 8.97684 60.7613C9.59065 60.7025 9.8192 60.6764 10.642 60.5587C12.4442 60.2973 17.5376 58.8724 21.2858 57.5783C21.8082 57.4018 22.3959 57.1992 22.5918 57.1339C23.6758 56.7679 27.8419 55.0031 30.493 53.7875C30.7281 53.6764 31.3158 53.4149 31.799 53.1992C32.2822 52.9835 32.8895 52.709 33.1377 52.5914C33.3923 52.4737 33.7449 52.3103 33.9212 52.2319C34.1041 52.1535 34.4241 52.0031 34.6395 51.9051C34.855 51.8071 35.3709 51.5718 35.7823 51.3822C36.1937 51.1927 36.7552 50.9378 37.023 50.8136C37.4931 50.5914 37.9241 50.3888 38.8514 49.9574C42.0837 48.4607 53.7919 42.6241 55.6007 41.611C59.2966 39.5456 60.6679 38.6437 62.0131 37.3822C63.5019 35.977 64.4422 34.7025 64.5467 33.9312C64.6055 33.526 64.501 33.4149 63.9525 33.2777C63.4758 33.16 62.2678 33.1404 61.5756 33.245C60.9422 33.3299 60.5177 33.6567 60.6353 33.9574C60.7267 34.1927 61.4058 34.2711 62.4375 34.16C62.8359 34.1208 62.8751 34.1273 62.9404 34.2515C63.0644 34.4803 62.7706 34.8855 61.9609 35.5979C60.6875 36.7286 56.8218 39.1208 52.7602 41.2973C51.5848 41.9313 49.8152 42.8855 49.3646 43.1339C46.9093 44.4737 42.2208 46.7875 37.4474 49.0097C34.744 50.2711 34.6004 50.3365 34.5677 50.3365C34.5547 50.3365 34.3326 50.4345 34.0714 50.5587C33.1115 51.0031 32.5696 51.2515 32.55 51.2515C32.5304 51.2515 32.3345 51.3365 32.1125 51.4411C31.8839 51.5391 31.4791 51.7221 31.2113 51.8397C30.9436 51.9574 30.5387 52.1404 30.3102 52.2384C30.0882 52.343 29.8792 52.428 29.8531 52.428C29.827 52.428 29.7225 52.4737 29.6115 52.5326C29.3307 52.6764 26.4183 53.9051 25.0405 54.4541C22.7942 55.3496 19.6925 56.4868 18.0208 57.0162C13.7894 58.3626 11.5627 58.9509 10.2502 59.062C10.1261 59.075 9.91715 59.0946 9.79308 59.1208C9.66901 59.1404 9.30333 59.1731 8.97684 59.1927C8.65687 59.2188 8.24548 59.2515 8.06264 59.2646C7.17457 59.3496 5.45066 59.3365 5.0654 59.245C4.37975 59.0881 3.95531 58.7613 3.72023 58.2188C3.55698 57.8594 3.5178 57.5522 3.5178 56.7744C3.5178 55.1143 3.73508 54.2347 4.27527 52.8136C4.56259 52.1339 5.96 49.3496 6.36486 48.6567C7.2464 47.1535 9.84532 43.4476 11.4713 41.3822C12.4769 40.1077 14.0702 38.1273 14.1681 38.0489C14.1877 38.0293 14.4228 37.7482 14.6905 37.428C14.9583 37.1012 15.1934 36.8267 15.2129 36.8071C15.2391 36.7875 15.6047 36.3757 16.0227 35.892C19.1179 32.3496 22.9705 28.5783 26.0853 26.0554C26.4836 25.7352 26.8167 25.4541 26.8363 25.4345C26.8558 25.4149 26.9995 25.2973 27.1628 25.1731C27.326 25.0489 27.5023 24.9116 27.5545 24.8659C28.1553 24.3822 29.7813 23.1208 30.3951 22.6567C30.8261 22.3299 31.1917 22.0489 31.2113 22.0293C31.2701 21.9574 32.9352 20.8201 33.6601 20.3561C34.3979 19.8855 35.9978 18.9443 36.925 18.4411C37.6368 18.0554 39.3934 17.0946 39.8178 16.8594C41.496 15.9312 44.6238 14.5652 46.4849 13.9574C47.2685 13.696 48.5157 13.4345 49.2666 13.3757C49.554 13.3495 50.0372 13.3103 50.3441 13.2842C51.415 13.1927 52.9299 13.245 53.5764 13.4018C55.1305 13.7744 56.097 14.2777 57.2985 15.3299C58.9701 16.7875 60.5308 18.5848 61.2752 19.9116C61.334 20.0162 61.5038 20.3103 61.6474 20.5652C62.2808 21.6829 62.9404 23.16 63.8415 25.4672C64.1027 26.1469 64.3443 26.7679 64.3769 26.8397C64.6773 27.5522 65.3107 29.2777 65.6764 30.4018C66.0943 31.6698 66.238 32.16 66.8322 34.3888C67.0999 35.3757 67.3481 36.2711 67.3807 36.3822C67.5113 36.7875 67.7675 37.647 67.7479 37.6666C67.7349 37.6797 67.1522 37.9313 66.5057 38.2123C60.7006 40.709 56.1361 43.1927 49.887 47.245C48.0259 48.4541 44.9895 50.7221 43.788 51.8071C43.7488 51.8397 43.566 51.9901 43.3897 52.1273C43.2068 52.2711 43.0175 52.4345 42.9587 52.4868C42.9065 52.5456 42.7106 52.7156 42.5343 52.8659C38.8905 55.9509 34.1629 60.8659 31.5509 64.2907C31.0611 64.9312 30.0359 66.6306 29.6245 67.4672C29.1609 68.4214 29.063 69.4476 29.3764 70.062C29.6703 70.6437 30.5518 70.9966 31.6684 70.9966C32.0472 70.9966 32.4194 70.977 32.4977 70.9639C32.5761 70.9443 32.8112 70.9182 33.0201 70.892C33.9408 70.794 34.9269 70.4149 35.2664 70.0228C35.4297 69.8397 35.4558 69.7679 35.4166 69.5652C35.3383 69.0816 34.9856 68.9901 34.2216 69.2384C33.9212 69.3365 33.327 69.4672 32.6153 69.5783C32.2431 69.6437 31.2636 69.6829 31.1068 69.6437C30.7085 69.5456 30.6236 68.8332 30.9109 67.9835C31.1852 67.1862 32.3084 65.4607 33.9343 63.3626C34.4698 62.6698 34.7179 62.3692 35.4101 61.5783C36.3569 60.4933 39.4717 57.3234 40.5883 56.3038C41.6201 55.3561 42.8281 54.3234 44.108 53.3103C44.4671 53.0228 44.8002 52.7482 44.8589 52.709C47.0007 50.9574 51.1669 47.8659 52.7602 46.8397C53.0279 46.6633 53.4262 46.4084 53.6417 46.2646C53.8572 46.1208 54.1249 45.9509 54.2294 45.892C54.3404 45.8267 54.8106 45.5456 55.2742 45.258C58.2127 43.4607 62.3265 41.3365 66.2706 39.5783C67.113 39.1992 68.0571 38.7957 68.0571 38.7957C68.0571 38.7957 68.069 38.8448 68.0854 38.9167C68.1163 39.052 68.1814 39.3252 68.3145 39.8463C68.4582 40.3822 68.5822 40.8724 68.5953 40.9247C68.6084 40.977 68.6802 41.2711 68.7585 41.5783C68.8369 41.8855 68.9087 42.1796 68.9218 42.2319C68.9348 42.2907 69.0916 42.9509 69.2679 43.7025C69.7119 45.5326 69.9143 46.3822 69.9992 46.7744C70.0449 46.9509 70.0907 47.1535 70.1037 47.2123C70.1168 47.2777 70.1429 47.3888 70.1625 47.4672C70.1755 47.5391 70.2017 47.6502 70.2212 47.709C70.2408 47.7679 70.267 47.892 70.2865 47.9835C70.2996 48.075 70.3453 48.2711 70.3845 48.4149C70.4237 48.5652 70.4824 48.8201 70.5151 48.9705C70.5477 49.1273 70.7828 50.1535 71.0375 51.2515C71.2987 52.3496 71.5468 53.4345 71.5991 53.6698C71.6513 53.9051 71.8146 54.5914 71.9582 55.2058C72.1019 55.8136 72.3108 56.696 72.4153 57.1665C72.5198 57.6306 72.7092 58.4541 72.8398 58.9966C72.9638 59.5326 73.0814 60.0489 73.101 60.1404C73.1205 60.2319 73.2185 60.6633 73.323 61.1012C73.434 61.5391 73.5319 61.9639 73.5515 62.0489C73.5646 62.1339 73.7017 62.6894 73.8454 63.2907C73.989 63.892 74.1262 64.4541 74.1392 64.5326C74.1719 64.7025 74.3547 65.4803 74.8249 67.3953C75.1252 68.6437 76.2549 73.3888 76.3006 73.6045C76.3137 73.6567 76.3986 74.0228 76.4965 74.4214C76.8949 76.1012 77.1234 77.1927 77.2148 77.8463C77.2344 77.9705 77.2605 78.1469 77.2801 78.2384C77.3193 78.4803 77.4368 79.3103 77.476 79.6698C77.4956 79.8397 77.5283 80.0489 77.5413 80.1404C77.5544 80.2319 77.6132 80.6829 77.6719 81.1535C77.7829 82.1077 77.8156 82.343 77.8678 82.7221C77.9005 83.0097 77.9331 83.258 77.9984 83.8005C78.3053 86.4541 78.7885 88.0424 79.3762 88.2842C79.6701 88.4084 79.8921 88.343 80.088 88.0881C80.3557 87.7286 80.408 86.9247 80.2186 85.9574C80.199 85.8659 80.1729 85.6894 80.1468 85.5652C80.1272 85.4411 80.088 85.2058 80.0554 85.0424C80.0227 84.879 79.9313 84.4084 79.8595 83.9966C79.7811 83.5848 79.6766 83.0228 79.6244 82.7548C79.5787 82.4868 79.5199 82.1731 79.5003 82.0685C79.2783 80.7744 79.0628 79.5783 79.0106 79.2907C78.9779 79.0947 78.8865 78.6045 78.8147 78.2123C78.7494 77.8136 78.671 77.4018 78.6514 77.2973C78.6318 77.1862 78.5861 76.9247 78.5535 76.709C78.4555 76.1143 78.4359 76.0031 78.2204 74.9443C78.1094 74.4018 77.9527 73.6567 77.8678 73.2777C77.7829 72.8986 77.698 72.5195 77.6785 72.428C77.6458 72.2515 77.4499 71.3953 77.0842 69.8463C76.9536 69.3038 76.8426 68.8071 76.8296 68.7352C76.8165 68.6633 76.7577 68.428 76.7055 68.2123C76.6467 67.9966 76.588 67.7482 76.5684 67.6567C76.5553 67.5652 76.4182 66.977 76.268 66.3496C75.9415 64.977 76.0656 65.5195 75.3603 62.3953C74.6551 59.2973 74.5049 58.6567 73.1793 53.4084C72.5483 50.9454 72.187 49.5482 71.8893 48.1456C71.5299 46.7938 71.0732 44.2135 70.8742 43.2777C70.7894 42.8528 69.9796 39.5064 69.8033 38.8724C69.6989 38.4737 69.6205 38.1469 69.627 38.1404C69.6531 38.1143 71.9452 37.1992 72.9181 36.8332C75.6085 35.8071 79.004 34.6698 81.8511 33.8332C84.1235 33.1665 86.1347 32.611 86.5853 32.5195C88.2527 32.0923 88.3555 32.0727 90.2878 31.6045C90.3662 31.5914 90.9538 31.4476 91.5938 31.2907C92.8867 30.9705 92.4128 31.0814 93.3165 30.8769C93.2014 30.9445 93.1325 31.0328 93.0891 31.1404C92.6028 32.3486 92.7791 33.71 92.8802 35.0424C92.8959 35.2501 92.9281 35.4563 92.952 35.6633C92.976 35.8703 92.9997 36.0772 93.0238 36.2842C93.067 36.6546 93.1141 37.0246 93.1544 37.3953C93.1757 37.5912 93.1912 37.7877 93.2132 37.9835C93.2328 38.1581 93.256 38.3322 93.2785 38.5064C93.2996 38.6699 93.3223 38.8332 93.3438 38.9966C93.3659 39.1643 93.3867 39.3322 93.4091 39.4999C93.4324 39.6743 93.4541 39.8489 93.4809 40.0228C93.6058 40.8817 93.7749 41.7459 93.938 42.6045C93.9891 42.8731 94.0454 43.1407 94.1013 43.4084C94.1968 43.8664 94.2934 44.3242 94.3951 44.7809C94.5526 45.4881 94.7146 46.1944 94.8849 46.8986C94.935 47.1061 94.9872 47.3131 95.0416 47.5195C95.2697 48.3847 95.509 49.247 95.7534 50.1077C96.0199 51.0468 96.3047 51.9805 96.5761 52.9182C96.6927 53.3209 96.8061 53.7245 96.9222 54.1273C97.1861 55.0429 97.4533 55.9574 97.7189 56.8724C97.8865 57.4498 98.2217 58.6045 98.2217 58.6045C98.2217 58.6045 98.1991 59.3323 98.1825 59.696C98.1646 60.0883 98.1584 60.4818 98.1172 60.8724C98.1024 61.0128 98.0755 61.1516 98.0519 61.2907C97.971 61.7689 97.9017 62.2254 97.7907 62.7221C97.634 63.4411 97.3913 64.3764 97.1235 65.2188C96.9086 65.895 96.6584 66.7576 96.0211 67.062C95.2046 67.4519 94.0328 66.9069 93.4287 66.258C93.4745 65.9013 93.5103 65.5398 93.5397 65.1796C93.6808 63.4542 93.6318 61.7523 93.5397 60.0424C93.5179 59.6376 93.4629 59.235 93.4091 58.8332C93.3359 58.2865 93.2383 57.7434 93.1479 57.1992C93.1269 57.0727 93.109 56.9456 93.0826 56.8201C92.8859 55.8842 92.6356 54.9602 92.3904 54.0358C92.3411 53.8498 92.2892 53.6645 92.2337 53.4803C91.2832 50.3237 90.3092 47.1722 89.2169 44.062C88.5065 42.0393 87.9946 40.2112 86.9183 38.0554C86.8338 37.8862 86.6779 37.6643 86.4743 37.7025C86.1678 37.76 85.8728 37.9337 85.6581 38.16C85.3772 38.456 85.1814 38.8594 85.1161 39.258C85.0769 39.5522 85.0704 41.526 85.1161 42.343C85.1618 43.2058 85.1564 43.5805 85.2401 44.1927C85.5373 46.3644 85.9947 48.6335 86.5788 50.6306C86.742 51.16 87.0071 52.1736 87.1991 52.9509C87.4161 53.8292 87.5981 54.7159 87.7999 55.5979C87.9619 56.3063 87.8652 55.9247 88.2896 57.7221C88.479 58.5456 88.7337 59.5326 89.0602 60.7482C89.2169 61.3103 90.0135 63.7613 90.1115 63.9639C90.1441 64.0358 90.2486 64.2842 90.3466 64.5195C90.5947 65.1273 90.8232 65.5391 91.3195 66.2188L91.7505 66.8201L91.7113 67.1665C91.6134 67.9509 91.1628 68.1665 90.8363 67.5914C90.7841 67.4999 90.5751 66.9443 90.3727 66.3496C89.9613 65.1731 89.6283 64.3234 89.3214 63.7286C89.0144 63.1208 88.479 62.6829 88.1786 62.8005C88.0284 62.8594 87.7738 63.2515 87.6758 63.5783C87.5256 64.0816 87.5779 64.6045 87.937 66.4149C88.2504 67.9966 88.2831 68.1992 88.4398 69.4084C88.5247 70.1077 88.576 70.6977 88.4529 70.7875C88.0501 71.0813 87.5834 70.494 87.4407 70.3496C86.2588 69.16 85.6646 68.1208 84.6982 65.5326C84.548 65.1339 84.3978 64.7548 84.3651 64.6829C84.1888 64.2973 83.7187 62.8659 83.6795 62.6175C83.6599 62.4607 83.6272 62.2842 83.6076 62.2254C83.5946 62.1665 83.5619 62.0162 83.5489 61.8986C83.5293 61.7744 83.5032 61.6045 83.4836 61.513C83.464 61.4214 83.4313 61.245 83.4118 61.1208C83.3922 60.9966 83.3334 60.7025 83.2812 60.4672C83.2354 60.2319 83.1767 59.9705 83.1636 59.879C83.1179 59.6241 82.7653 58.0097 82.4453 56.5783C82.0405 54.7744 81.3091 51.5652 81.1981 51.0881C81.1067 50.7025 80.6822 48.7221 80.1468 46.1862C80.1337 46.1143 80.0749 45.8332 80.0227 45.5652C79.8856 44.892 79.8921 44.9051 79.7027 44.062C79.6113 43.6502 79.5264 43.2384 79.5068 43.1469C79.3501 42.3299 79.0367 41.0946 78.9126 40.8136C78.7167 40.3822 78.3967 39.9051 78.2074 39.7875C77.9854 39.6437 77.7242 39.7352 77.3846 40.0685C76.8753 40.5783 76.8296 40.7221 76.8818 41.8659C76.9014 42.4084 76.934 42.9574 76.9471 43.0816C76.9602 43.2058 76.9928 43.4999 77.0124 43.7352C77.0385 43.9705 77.0646 44.2319 77.0777 44.3234C77.0973 44.4149 77.1234 44.6894 77.1495 44.9313C77.1691 45.1731 77.2018 45.428 77.2148 45.4868C77.2214 45.5456 77.254 45.7744 77.2736 45.9901C77.2997 46.2058 77.3324 46.428 77.3454 46.4803C77.3585 46.5326 77.3846 46.7156 77.4107 46.8855C77.5152 47.7482 77.9396 49.5391 78.4816 51.3822C78.769 52.3822 78.9453 52.9443 79.5591 54.8463C79.8007 55.5848 80.1141 56.5979 80.2578 57.1012C80.6953 58.6306 81.5703 61.3953 82.5367 64.3234C82.713 64.8463 82.8698 65.4149 82.8894 65.5979C82.9155 65.7744 82.9416 65.9966 82.9612 66.0881C82.9938 66.2907 83.0461 66.7221 83.0918 67.2319C83.1114 67.4476 83.144 67.7286 83.1571 67.8528C83.1701 67.977 83.2028 68.3626 83.2289 68.7025C83.2485 69.0424 83.2812 69.4868 83.3007 69.6829C83.3138 69.879 83.3399 71.9509 83.353 74.2842C83.3726 76.6175 83.3987 78.5783 83.4183 78.6437C83.4836 78.8463 83.793 79.2117 84.0256 79.1077C84.3972 78.9415 84.7734 78.5302 84.7896 78.2123C84.7956 77.2752 84.7896 75.3365 84.7896 75.3365C84.783 72.8267 84.7373 70.4999 84.659 69.5522L84.6394 69.258L84.881 69.7809C85.3185 70.7156 85.5323 71.0333 86.0333 71.5123C86.409 71.8715 86.8627 72.1996 87.3689 72.3169C88.0032 72.4638 88.7862 72.5274 89.3148 72.1469C89.745 71.8373 89.8012 71.2084 89.9501 70.6885C90.0635 70.2923 90.0975 69.5438 90.0975 69.5438C90.0975 69.5438 90.3596 69.5979 90.5359 69.6502C90.7057 69.7025 91.0649 69.7482 91.3261 69.7548C92.1749 69.7679 92.4327 69.567 92.7767 68.6651C92.8762 68.404 92.9278 68.2446 92.9977 68.1796C93.0881 68.2001 93.1675 68.2515 93.2981 68.343C93.8989 68.7417 94.9959 68.9312 95.7925 68.7744C96.7133 68.5914 97.6732 67.7744 98.1303 66.7875C98.5678 65.8463 99.1032 64.16 99.3514 62.9313L99.4754 62.3496L99.828 63.0946C100.481 64.4607 101.19 65.0671 102.179 65.6829C102.513 65.8912 102.927 65.9427 103.315 66.0097C103.489 66.0397 103.844 66.0424 103.844 66.0424L103.517 66.343C103.054 66.7679 102.669 67.1143 102.231 67.4933C102.022 67.6698 101.787 67.879 101.709 67.9443C101.428 68.1992 100.05 69.2777 99.5799 69.6175C98.6527 70.2842 98.3851 70.4329 97.745 70.8594C97.213 71.242 96.6723 71.5862 96.23 71.8659C94.9698 72.6633 94.5192 73.0097 94.5649 73.16C94.6106 73.3169 95.1526 73.5522 95.3877 73.5129C95.6554 73.4737 96.8243 72.9116 97.5556 72.4737C98.9204 71.6633 101.206 70.0358 102.584 68.9051C103.315 68.3038 103.57 68.075 104.503 67.1862C104.83 66.879 105.235 66.4933 105.398 66.3365C109.107 62.8267 110.433 61.4149 111.7 59.6175C112.339 58.7025 114.031 56.1665 114.488 55.428C115.781 53.3299 116.473 51.8463 117.896 48.075C118.36 46.8659 118.703 45.4969 118.853 44.7126C119.147 43.1113 119.313 42.2188 119.313 40.4018C119.313 39.16 119.287 38.7482 119.131 37.7548C119.033 37.16 118.746 36.1201 118.459 35.4731C117.297 32.8456 116.677 32.4803 115.395 31.3888C113.77 30.2319 112.679 29.7156 110.485 29.0685C109.871 28.8855 109.199 28.7548 108.395 28.6698C106.384 28.4476 104.425 28.428 101.735 28.6045C101.108 28.6437 100.298 28.709 100.037 28.7352C99.9129 28.7482 99.606 28.7809 99.3514 28.8005C99.1032 28.8267 98.8224 28.8528 98.731 28.8659C98.6396 28.879 98.4502 28.9051 98.3066 28.9312C98.1629 28.9509 97.9148 28.977 97.7515 28.9901C96.7655 29.0881 94.049 29.5326 92.299 29.8855C90.4902 30.2515 87.3297 31.0162 85.0508 31.6371C84.3843 31.8015 84.2601 31.8236 83.4509 31.9966C81.995 31.6273 80.8455 30.9312 79.7093 29.7744C78.6645 28.7156 77.9396 27.3038 76.9275 24.3626C76.7447 23.8267 76.601 23.3822 76.6075 23.3757C76.6206 23.3692 77.0255 23.2384 77.5087 23.0816C78.3641 22.8136 79.9443 22.2842 80.6169 22.0358C81.1393 21.8463 81.6748 21.7221 82.1776 21.6698C83.131 21.5848 83.3856 21.4607 83.3856 21.1077C83.3856 20.611 82.9873 20.4345 82.0013 20.4868C80.852 20.5522 79.8595 20.7679 77.9658 21.3757C76.3333 21.8986 76.1374 21.9574 76.1374 21.9247C76.1374 21.9051 76.0656 21.6241 75.9807 21.2973C75.7195 20.3103 75.4321 18.7482 75.1905 16.9966C75.1252 16.5064 75.0077 15.709 74.8967 15.0424C74.8314 14.6306 74.7596 14.1992 74.7465 14.0946C74.7269 13.9835 74.6812 13.6894 74.6355 13.4411C74.5963 13.1862 74.5506 12.892 74.531 12.7875C74.518 12.6763 74.4722 12.428 74.4396 12.2319C74.4069 12.0358 74.3612 11.7417 74.3416 11.5783C74.3221 11.4149 74.2894 11.2384 74.2763 11.1861C74.2633 11.1339 74.2372 10.9378 74.211 10.7613C74.1915 10.5783 74.1588 10.3626 74.1457 10.2711C74.0609 9.72864 74.0086 8.76131 73.9498 6.93779C73.8127 2.37569 73.8062 2.29726 73.7278 2.08811C73.6429 1.86589 73.4013 1.70903 73.0879 1.66327C72.8724 1.63713 72.8006 1.66327 72.5786 1.85936ZM76.1374 26.9378C76.5031 27.8594 77.1169 29.1077 77.4238 29.5652C78.2008 30.7156 79.5264 31.9443 80.5973 32.4933C80.8389 32.6175 80.941 32.6831 81.0564 32.7717C80.8445 32.8464 80.7606 32.879 80.4341 32.9835C79.435 33.2842 75.7521 34.5326 74.7334 34.9116C73.1858 35.4868 72.0953 35.9051 70.8155 36.4149C69.9992 36.7352 69.3266 37.0031 69.3136 37.0031C69.3005 37.0031 69.2679 36.9051 69.2483 36.7875C69.2222 36.6763 69.0132 35.9051 68.7847 35.0816C68.5496 34.258 68.3798 33.5718 68.3994 33.5522C68.419 33.5326 68.4843 33.5652 68.5496 33.6241C68.6149 33.6829 68.8369 33.8071 69.0459 33.9051C69.9405 34.3169 70.6849 33.892 71.0114 32.7744C71.0897 32.513 71.1616 32.4084 71.3313 32.2973C71.7558 32.0424 71.9647 32.0816 72.5263 32.5391C73.6103 33.4149 74.6747 32.8528 75.2101 31.1208C75.3734 30.5783 75.4583 30.0228 75.615 28.4737C75.6542 28.075 75.6933 27.6502 75.7129 27.526C75.726 27.4018 75.7586 27.0554 75.7848 26.7548C75.8044 26.4607 75.837 26.2254 75.8435 26.2319C75.8501 26.245 75.9872 26.5587 76.1374 26.9378ZM105.608 29.8146C106.158 29.8453 106.71 29.884 107.253 29.977C108.865 30.2531 110.498 30.5459 112.019 31.1469C112.839 31.4706 113.636 31.8908 114.325 32.4411C115.264 33.1919 116.129 34.085 116.741 35.1208C117.385 36.2119 117.785 37.4619 117.984 38.7136C118.212 40.1507 118.117 41.6387 117.907 43.0786C117.622 45.0271 117.023 46.9301 116.316 48.7679C115.639 50.5282 114.728 52.1941 113.796 53.8332C113.007 55.219 112.107 56.5393 111.203 57.8528C111.088 58.0197 110.97 58.1842 110.844 58.343C109.374 60.1992 107.816 61.9862 106.227 63.7417C105.992 64.0019 105.834 64.1865 105.499 64.5019C105.484 63.9943 104.785 63.6464 104.373 64.1273C104.168 64.3661 103.949 64.7016 103.635 64.7156C103.174 64.736 102.809 64.2742 102.479 63.9509C102.067 63.5468 101.756 63.0402 101.493 62.526C100.672 60.9211 100.126 59.1764 99.6844 57.428C99.5765 57.0005 99.5485 56.5567 99.482 56.1208C99.3274 55.1081 99.1789 54.0944 99.0249 53.0816C99.0033 52.9399 98.9816 52.7983 98.9596 52.6567C98.9273 52.4497 98.8953 52.2426 98.8616 52.0358C98.8278 51.8287 98.7952 51.6213 98.7571 51.4149C98.4384 49.6885 98.0773 47.9701 97.7189 46.2515C97.6347 45.8478 97.5442 45.4455 97.4577 45.0424C97.2802 44.2147 97.1097 43.3856 96.9287 42.5587C96.9097 42.4714 96.8893 42.3845 96.87 42.2973C96.6003 41.0781 96.3366 39.8577 96.0733 38.6371C95.9657 38.1384 95.862 37.6389 95.7534 37.1404C95.7106 36.9442 95.6674 36.748 95.6228 36.5522C95.5824 36.3755 95.5399 36.1993 95.4987 36.0228C95.3436 35.3584 95.1924 34.6931 95.0351 34.0293C94.973 33.7676 94.9119 33.5057 94.8457 33.245C94.6792 32.5894 94.6008 31.901 94.3233 31.2842C94.2745 31.1756 94.2084 31.0725 94.1261 30.9866C94.0412 30.8978 93.8995 30.7778 93.8282 30.7696C94.2651 30.6769 94.3951 30.6567 95.0416 30.5652C95.1853 30.5456 95.3746 30.513 95.466 30.4999C95.5575 30.4803 95.7599 30.4541 95.9231 30.4345C96.0864 30.4149 96.2823 30.3888 96.3672 30.3692C96.4521 30.3561 96.7002 30.3234 96.9222 30.3038C97.1442 30.2842 97.8611 30.1605 98.3324 30.1031C99.0087 30.0208 99.6866 29.9506 100.366 29.8972C101.097 29.8398 101.829 29.79 102.561 29.7744C103.577 29.7527 104.594 29.7579 105.608 29.8146ZM87.382 43.0097C87.6912 43.6617 87.8987 44.3975 88.0807 44.9443C88.3092 45.6241 88.4986 46.2319 88.5116 46.2842C88.5443 46.428 89.2038 48.5783 89.7523 50.3365C90.0135 51.1796 90.3662 52.3561 90.5294 52.9509C90.6926 53.5456 90.8559 54.1143 90.8885 54.2254C91.104 54.892 91.6264 57.3365 91.744 58.245C91.7831 58.5522 91.8289 58.8855 91.8484 58.9966C91.966 59.794 92.0497 63.9198 91.9452 63.9487C91.8572 63.9168 91.2738 62.5979 91.0649 61.9574C90.9277 61.5391 90.6926 60.7286 90.6012 60.3365C90.5882 60.2842 90.4902 59.8724 90.3792 59.4214C90.2747 58.9705 90.1703 58.5326 90.1507 58.4411C90.052 57.9889 89.9544 57.5053 89.8503 57.0685C89.8176 56.9051 89.563 55.7875 89.2952 54.5848C89.021 53.3822 88.6945 51.9378 88.5704 51.3822C88.4398 50.8267 88.4032 50.6409 88.3157 50.2711C88.1593 49.6099 87.9833 48.9533 87.8325 48.2907C87.6339 47.4179 87.3297 46.0881 87.2775 45.6633C87.2306 45.3169 87.1738 44.9384 87.1404 44.6306C87.0556 44.07 86.9431 43.1858 87.0685 42.696C87.1404 42.5783 87.2383 42.6763 87.382 43.0097Z" fill="#C0AA81"/>
</svg>
